<svg width="1374" height="961" viewBox="0 0 1374 961" fill="none" xmlns="http://www.w3.org/2000/svg">
<g id="y685WP01 1">
<g id="Group">
<path id="Vector" d="M598.503 236.764C573.063 244.879 557.703 257.265 545.223 279.475C526.023 313.217 456.903 469.539 456.903 478.936C456.903 484.061 453.543 487.905 449.703 487.905C441.543 487.905 440.103 495.166 447.783 497.301C451.143 498.156 451.143 502.427 448.263 509.261C445.863 515.24 442.503 531.897 441.063 546.846C437.703 578.453 415.623 631.841 404.583 634.404C400.263 635.258 382.983 636.54 365.703 636.967C294.663 639.529 260.103 653.624 266.823 677.542C273.063 699.325 292.263 703.596 381.543 703.596C465.543 703.596 467.943 703.169 477.063 684.803C478.023 683.095 506.343 683.522 539.943 685.657C596.103 689.074 602.343 688.647 607.623 681.813C613.383 674.98 615.783 674.98 642.183 681.386C706.503 696.762 849.063 709.576 934.503 707.867C996.423 706.159 1016.1 701.461 1020.42 686.939C1031.94 651.916 1076.1 496.874 1076.1 492.603C1076.1 490.041 1072.74 487.905 1068.42 487.905C1063.14 487.905 1061.22 490.468 1063.14 496.447C1066.5 507.979 1062.66 507.125 1056.42 495.166C1052.1 486.624 1052.1 486.624 1054.02 498.156C1055.94 512.25 1017.06 657.468 1009.38 664.302C1001.7 671.136 818.343 673.698 759.303 667.719C692.103 660.458 622.983 649.78 618.183 645.509C615.303 642.946 616.743 633.977 622.023 620.309C626.823 608.777 628.743 596.818 626.823 594.256C624.903 591.266 625.383 590.412 628.743 591.693C634.023 594.683 664.743 519.511 660.903 513.532C659.463 511.823 661.863 508.833 666.183 507.552C672.903 505.417 672.903 503.708 667.623 497.729C663.783 493.885 663.303 491.749 666.183 493.03C669.063 494.739 686.343 457.153 711.303 393.513C733.383 337.135 754.983 288.871 758.823 285.881C764.583 281.61 765.543 282.037 763.143 287.59C761.223 291.434 751.143 317.488 740.103 345.25C728.583 373.439 715.623 405.473 710.343 417.005C705.543 428.537 702.183 440.496 703.623 443.058C706.503 449.892 738.183 456.726 784.263 460.143C818.823 463.133 821.223 463.987 820.743 472.956C819.783 481.925 839.463 508.406 847.143 508.833C849.543 509.261 849.543 507.125 848.103 504.989C846.663 502.427 849.063 500.718 853.863 500.718C861.543 500.291 861.543 499.864 852.903 495.166C847.623 492.603 842.343 490.041 840.903 490.041C832.263 489.613 826.503 481.071 826.503 469.112V454.59L789.543 451.173C768.903 449.465 751.143 447.757 749.703 447.329C748.263 446.902 738.183 445.194 727.143 443.485L706.983 440.069L721.863 403.337C730.023 382.836 744.903 346.958 754.023 323.467L771.303 280.756L802.503 277.766C832.263 275.204 1094.82 276.485 1097.7 279.475C1102.02 282.892 1051.62 443.485 1044.9 447.757C1041.06 450.319 1018.5 453.309 995.463 453.736C953.703 455.017 929.703 456.299 919.143 457.153C916.263 457.58 909.543 464.414 904.263 472.529C898.023 482.353 889.383 487.905 879.783 490.041C871.623 491.749 864.903 495.593 864.903 498.583C864.903 506.698 873.063 510.542 875.943 504.135C877.863 499.864 878.823 499.864 878.823 503.708C879.303 506.698 881.703 509.261 884.583 509.261C886.983 509.261 887.943 507.125 886.023 504.562C884.583 502 886.023 498.156 889.383 496.02C900.423 490.041 904.743 491.749 901.863 500.718C898.983 510.542 904.263 511.823 912.423 503.281C916.743 498.583 916.743 496.874 911.943 495.593C907.143 493.885 906.663 490.468 910.503 481.071L915.303 468.685L981.063 464.414C1028.58 461.424 1048.74 458.434 1053.54 453.736C1057.38 450.319 1070.82 411.452 1083.78 367.033C1098.66 314.925 1109.22 287.163 1113.06 287.163C1116.42 287.163 1119.3 288.444 1119.3 289.725C1119.3 291.007 1107.3 333.291 1092.42 383.69C1078.02 434.089 1066.98 478.081 1068.42 480.644C1069.38 483.634 1070.82 481.925 1071.3 477.227C1071.78 468.685 1072.26 468.685 1075.62 476.8C1078.02 482.78 1087.14 456.299 1104.42 392.659C1130.82 295.705 1131.3 288.871 1110.18 278.621C1081.38 264.953 790.023 266.661 759.783 280.329C751.623 284.173 742.023 287.163 738.663 286.736C723.303 285.027 716.583 288.444 702.183 306.383C684.423 328.165 672.903 331.582 672.903 314.071C672.903 303.393 672.903 302.966 663.303 310.654C651.783 320.05 650.823 316.206 661.383 302.112C668.103 293.142 670.503 292.715 680.583 296.559C697.383 303.393 707.463 294.424 694.983 283.746C687.303 276.912 686.343 276.912 679.623 284.6C674.823 290.58 672.903 291.434 672.903 286.736C672.423 282.465 670.503 283.319 665.223 289.298C653.703 302.112 642.663 322.613 648.423 319.623C651.303 317.915 653.703 318.769 653.703 321.759C653.703 325.176 655.623 325.176 660.903 321.332C667.143 316.633 667.623 317.061 665.223 323.04C663.303 327.311 659.463 329.447 656.103 328.165C652.263 326.884 648.423 329.02 646.983 332.437C645.543 336.281 641.703 337.562 638.823 335.853C635.463 334.145 634.503 334.572 635.943 337.562C640.263 343.114 634.983 356.355 629.703 353.365C624.903 350.802 609.543 385.825 598.983 422.13C587.943 460.57 585.063 488.759 590.823 500.718C595.143 509.261 595.623 507.125 593.223 488.759C591.303 474.237 592.263 466.549 595.623 466.549C598.503 466.549 599.463 463.56 598.023 460.143C595.623 455.017 600.423 435.797 609.063 415.296C610.503 411.879 612.423 405.9 613.383 402.483C614.343 399.493 618.183 388.388 622.503 378.565C629.223 362.761 632.583 360.199 651.783 355.928C675.303 350.802 705.063 329.02 721.383 305.956C731.463 291.007 743.943 285.881 737.703 298.695C730.503 314.498 673.863 452.455 668.103 468.685C664.743 478.081 659.463 487.051 657.063 488.759C653.703 490.468 654.183 494.312 658.503 499.437C662.343 503.708 663.303 505.844 661.383 504.135C655.143 499.437 649.383 511.396 620.103 586.141C606.183 622.445 592.743 654.051 590.823 656.187C588.903 658.322 590.343 662.593 594.183 666.01C598.023 669.427 600.903 674.98 600.903 678.824C600.903 683.949 597.063 684.376 580.743 682.241C569.223 680.532 558.663 677.115 557.223 674.98C555.783 672.844 544.743 672.417 533.223 673.271C517.383 674.98 514.983 674.553 524.103 671.99C534.183 668.573 532.263 668.146 512.103 667.719C494.823 667.719 490.023 668.573 495.303 671.563C501.543 675.407 501.543 675.834 495.303 675.834C491.463 675.407 483.783 672.844 478.983 669.427C464.583 659.604 461.703 661.739 461.703 680.959C461.223 698.471 461.223 698.898 454.023 690.783C444.903 680.105 448.263 666.01 466.503 642.946C479.943 625.435 479.943 625.435 469.863 622.872C453.543 619.028 450.663 619.882 454.023 627.143C455.463 630.987 454.983 632.269 451.623 630.987C448.743 629.279 447.783 625.435 449.223 622.018C450.663 618.601 449.703 616.038 447.303 616.038C444.423 616.038 442.503 614.33 442.503 612.194C442.503 610.059 450.663 610.059 461.703 612.194C474.183 614.757 487.143 614.757 496.743 611.767C510.183 607.923 510.663 607.923 499.143 609.205C491.463 610.059 485.703 608.777 485.703 607.069C485.703 602.798 506.823 601.944 511.143 606.215C513.063 607.496 502.983 619.455 489.063 632.696L464.103 656.614L492.903 659.177C508.743 660.885 535.623 662.166 552.903 662.166C576.903 661.739 571.623 660.885 531.303 657.895C502.503 655.76 478.023 653.197 477.063 652.343C476.103 651.489 476.583 648.499 478.503 645.936C480.903 642.519 494.823 642.092 524.583 644.228C578.343 647.645 586.503 643.801 597.543 608.777C607.623 578.025 607.623 553.253 598.503 539.158C591.783 528.908 591.783 529.762 591.303 554.107C591.303 568.202 588.903 582.724 586.023 586.141C580.743 592.974 583.143 542.148 589.383 522.928C591.303 517.376 590.343 513.532 587.463 513.532C580.743 513.532 574.983 564.785 578.343 597.245L581.223 624.153L563.463 628.425C526.983 636.967 516.903 636.113 515.463 625.008C514.023 617.747 515.463 615.611 520.743 617.32C530.343 620.309 540.423 613.903 537.063 606.215C534.183 599.381 461.703 591.693 451.623 597.245C447.303 599.381 446.343 589.13 448.743 556.67C450.663 521.647 453.063 511.823 459.783 507.552C465.063 503.708 466.023 501.145 462.663 499.01C455.463 495.166 465.543 466.122 508.263 372.585C553.863 272.641 562.503 258.546 587.943 248.296C609.063 240.181 667.623 237.618 692.103 244.452L704.103 247.441L691.623 252.14C665.223 261.536 633.063 304.247 610.023 360.199C595.143 396.93 567.303 489.613 567.303 503.281C567.303 519.938 573.543 503.281 584.583 457.58C598.983 395.649 611.943 361.053 635.463 321.332C660.423 278.193 686.823 252.994 706.503 252.994C710.343 252.994 706.983 256.838 698.823 261.109C690.183 265.807 682.023 271.36 680.103 274.349C678.663 276.912 683.943 275.204 693.063 270.078C713.223 259.401 719.463 259.401 723.303 270.078C724.743 274.777 728.583 278.621 731.463 278.621C740.583 278.621 718.503 251.285 702.663 243.17C683.943 233.347 620.103 229.503 598.503 236.764ZM1086.18 438.787C1080.9 455.017 1076.58 466.122 1076.58 463.133C1076.1 455.017 1091.94 399.92 1093.86 404.618C1094.34 407.181 1090.98 422.13 1086.18 438.787ZM1045.38 586.141C1036.26 615.611 1028.58 636.967 1028.58 633.55C1028.1 624.581 1059.3 519.511 1060.26 526.345C1061.22 529.762 1054.02 556.67 1045.38 586.141ZM437.703 613.903C430.983 631.414 434.343 637.394 450.183 637.394C456.423 637.394 461.703 639.102 461.703 641.238C461.703 648.926 448.743 653.197 430.023 651.061L409.863 649.353L421.863 623.299C440.583 581.442 439.623 583.151 441.543 591.693C442.503 595.537 440.583 605.788 437.703 613.903ZM351.783 664.302C347.943 671.563 345.063 683.095 344.583 689.501C344.103 696.335 342.663 701.461 340.743 701.461C335.463 701.461 331.623 686.085 334.983 677.542C337.383 669.854 337.383 669.854 332.103 677.115C329.223 680.959 328.263 688.647 329.703 693.345C332.103 699.752 331.623 701.461 327.303 699.325C323.943 697.617 322.503 690.783 323.463 683.949C324.903 677.542 323.943 672.844 321.543 674.125C319.623 675.407 317.703 682.241 317.703 689.074C317.703 696.762 315.783 701.033 312.903 699.325C306.183 695.481 307.143 677.542 314.343 672.417C317.703 669.854 326.343 668.573 333.543 669.854C345.543 671.563 346.503 670.709 346.503 655.76C346.503 643.373 347.943 641.238 352.263 645.082C357.063 649.353 356.583 653.197 351.783 664.302ZM366.183 648.926C366.663 656.187 367.143 656.187 369.063 648.926C372.423 637.821 380.103 639.957 380.103 652.343C380.103 658.749 377.223 663.021 373.383 663.021C365.223 663.021 354.183 686.085 358.023 695.481C359.943 699.752 358.503 701.461 355.143 700.606C345.543 697.617 345.063 681.813 354.183 674.125C358.983 669.427 361.383 662.593 359.943 654.478C358.503 647.217 359.463 641.665 361.863 641.665C363.783 641.665 366.183 645.082 366.183 648.926ZM330.663 657.041C331.623 661.739 330.663 663.021 329.223 659.177C326.823 654.478 325.383 654.478 322.503 659.177C319.143 663.448 317.223 663.448 310.503 658.749C304.743 654.478 304.263 652.343 308.583 649.78C318.183 644.655 329.703 648.499 330.663 657.041ZM296.103 654.478C294.663 656.614 289.863 658.749 286.023 658.749C282.183 658.749 280.263 660.885 281.703 663.021C283.623 665.583 288.423 666.437 292.743 665.583C303.303 662.593 316.263 669.427 308.583 673.271C305.703 674.98 303.303 681.386 302.823 687.793C302.823 694.2 301.383 696.762 299.943 693.773C298.983 691.21 295.623 689.501 293.223 691.21C290.823 692.491 288.903 691.21 288.903 688.647C288.903 686.085 286.983 685.23 284.103 686.512C281.223 687.793 279.303 684.803 279.303 679.251C279.303 671.563 278.343 670.709 274.503 675.834C271.623 679.678 269.703 680.105 269.703 677.115C269.703 674.553 272.103 670.709 274.503 669.427C277.383 667.719 278.343 664.729 276.903 662.593C274.983 660.458 278.823 657.041 285.063 654.905C299.463 649.353 299.463 649.353 296.103 654.478ZM695.943 665.156C724.263 669 754.983 672.844 764.103 674.125C796.263 677.969 910.503 679.678 959.943 676.688C1001.7 674.125 1011.3 671.99 1017.06 665.156C1023.78 657.468 1024.26 657.468 1021.38 664.302C1019.94 668.573 1018.5 674.125 1018.5 675.834C1018.5 684.376 978.183 688.647 900.423 688.647C807.783 688.647 734.343 683.095 668.583 671.136C644.103 666.865 623.463 663.021 622.503 663.021C621.543 663.021 620.103 660.458 618.663 657.041C616.263 652.343 618.663 651.489 630.183 654.478C638.343 656.614 667.623 661.312 695.943 665.156ZM442.503 661.739C446.823 665.156 446.343 697.189 442.023 697.189C434.343 697.189 431.463 684.376 436.743 673.271C442.023 663.875 441.543 663.021 428.103 663.021C419.943 663.021 413.703 660.885 413.703 658.749C413.703 654.905 436.263 657.041 442.503 661.739ZM416.103 685.23C416.103 694.2 414.183 700.606 411.303 700.179C408.903 699.325 406.503 692.491 406.503 685.23C406.503 678.397 404.583 673.271 402.663 674.553C400.263 675.834 399.303 682.241 400.263 689.074C401.703 697.189 400.743 701.033 397.383 700.179C394.503 699.325 392.103 692.491 392.103 685.23C392.103 678.397 390.183 673.271 388.263 674.553C385.863 675.834 384.903 682.241 385.863 689.074C387.303 697.189 386.343 701.033 382.983 700.179C380.103 699.325 378.183 692.064 378.663 683.949C379.143 671.99 378.663 670.709 374.343 677.115C371.943 681.386 370.503 689.074 371.943 693.345C373.383 698.898 372.423 701.461 369.063 700.179C360.423 697.617 359.463 681.813 367.143 674.98C370.983 671.563 383.463 669 395.463 669H416.583L416.103 685.23ZM430.503 684.376C430.503 693.773 429.063 701.461 427.143 701.461C421.863 701.461 417.543 684.803 420.903 675.834C425.703 661.739 430.503 666.01 430.503 684.376Z" fill="#FF0505"/>
<g id="Group 4">
<path id="Vector_2" d="M937.44 284.883C947.04 285.737 963.36 285.737 973.44 284.883C983.04 284.029 974.88 283.174 955.2 283.174C935.52 283.174 927.36 284.029 937.44 284.883Z" fill="#FF0505"/>
<path id="Vector_3" d="M845.76 295.56C838.08 304.53 819.84 357.064 821.76 365.607C823.2 373.295 830.4 373.722 919.2 375.857C972 377.139 1018.56 376.711 1022.88 375.003C1029.12 372.44 1051.2 319.051 1051.2 306.665C1051.2 305.384 1009.44 303.675 959.04 303.248C904.32 303.248 864.48 301.113 861.6 298.55C858.72 295.987 889.44 294.706 956.16 295.56C1010.4 296.415 1054.08 295.56 1052.64 293.425C1051.68 291.716 1005.6 290.435 950.88 290.435C876.48 290.435 849.6 291.716 845.76 295.56ZM844.8 335.282C839.04 350.658 832.32 363.898 829.92 365.179C821.28 370.305 825.6 355.356 848.16 303.248C850.08 298.55 851.52 298.123 852.96 301.967C854.4 304.957 850.56 319.906 844.8 335.282ZM1036.32 318.197C1036.32 322.895 1032.48 336.136 1027.68 348.095L1019.04 369.451L930.72 367.742C882.24 367.315 841.92 366.034 841.44 365.607C840.96 365.179 844.8 351.512 851.04 335.709L861.6 306.665L948.96 308.374C1032.96 309.655 1036.8 310.082 1036.32 318.197Z" fill="#FF0505"/>
<path id="Vector_4" d="M1063.2 307.52C1061.28 310.082 1068 311.791 1079.52 311.791C1090.56 311.791 1099.2 309.655 1099.2 307.52C1099.2 304.957 1092 303.248 1082.88 303.248C1073.76 303.248 1064.64 304.957 1063.2 307.52Z" fill="#FF0505"/>
<path id="Vector_5" d="M1058.4 324.604C1056.48 327.167 1063.2 328.875 1074.72 328.875C1085.76 328.875 1094.4 326.74 1094.4 324.604C1094.4 322.041 1087.2 320.333 1078.08 320.333C1068.96 320.333 1059.84 322.041 1058.4 324.604Z" fill="#FF0505"/>
<path id="Vector_6" d="M1056 341.688C1050.72 344.678 1054.08 345.959 1069.44 345.959C1080.48 345.959 1089.6 343.824 1089.6 341.688C1089.6 336.136 1065.6 336.136 1056 341.688Z" fill="#FF0505"/>
<path id="Vector_7" d="M1052.64 357.064C1039.68 362.19 1047.36 367.742 1064.64 366.461C1074.24 365.607 1081.92 363.044 1081.44 360.908C1080 356.21 1061.76 353.647 1052.64 357.064Z" fill="#FF0505"/>
<path id="Vector_8" d="M820.8 392.942C815.04 396.359 815.04 397.213 821.76 399.348C833.28 403.619 855.84 400.203 858.24 393.796C860.16 387.816 831.84 386.535 820.8 392.942Z" fill="#FF0505"/>
<path id="Vector_9" d="M872.16 391.66C864.96 397.64 869.28 401.484 882.72 401.484C899.52 401.484 912 397.64 912 392.515C912 388.243 876.96 387.389 872.16 391.66Z" fill="#FF0505"/>
<path id="Vector_10" d="M919.2 397.213C920.64 399.348 929.28 401.484 938.4 401.484C947.52 401.484 956.16 399.348 957.6 397.213C959.52 394.65 951.84 392.942 938.4 392.942C924.96 392.942 917.28 394.65 919.2 397.213Z" fill="#FF0505"/>
<path id="Vector_11" d="M969.6 397.213C969.6 399.348 978.24 401.484 988.32 401.484C998.88 401.484 1008.96 399.348 1010.4 397.213C1012.32 394.65 1004.64 392.942 991.68 392.942C979.68 392.942 969.6 394.65 969.6 397.213Z" fill="#FF0505"/>
<path id="Vector_12" d="M646.08 400.63C648.96 402.338 650.88 407.036 650.4 410.88C649.44 414.724 651.84 420.277 655.68 423.267C660.96 427.111 662.88 426.256 665.28 420.704C668.16 413.87 669.12 413.87 672.96 420.277C675.84 424.548 675.36 430.1 672 434.372C667.68 440.778 667.2 440.351 669.6 431.382C672 421.985 671.52 421.558 667.2 428.392C663.84 432.663 662.88 439.07 664.32 442.914C666.24 447.185 663.36 451.883 657.6 455.727C652.32 459.144 648.96 463.415 650.4 465.551C651.84 467.686 648.48 471.957 642.72 475.374C636 480.072 634.56 482.208 639.36 483.916C656.16 489.042 681.6 459.571 681.6 434.372C681.6 422.84 678.24 416.86 666.72 408.318C658.56 402.338 649.44 397.213 646.56 397.213C642.24 397.213 642.24 398.067 646.08 400.63ZM672.96 455.727C670.08 459.998 661.92 468.113 654.24 474.093C641.76 484.344 641.28 484.344 650.4 474.52C655.68 468.968 659.52 463.415 659.52 461.707C659.04 460.425 660.48 459.571 662.4 459.998C664.8 460.852 668.16 457.008 669.6 452.31C671.52 447.612 673.92 444.622 675.36 445.476C676.32 446.758 675.36 451.456 672.96 455.727Z" fill="#FF0505"/>
<path id="Vector_13" d="M915.36 459.144C916.8 462.988 914.4 469.395 909.6 474.093C901.92 481.781 897.6 482.208 866.88 478.791C864.96 478.791 864 473.666 864.96 467.686C866.4 462.134 865.44 458.29 863.52 459.571C861.12 460.852 859.2 466.405 859.2 471.53C859.2 478.791 863.52 483.062 873.6 486.906C885.6 491.177 889.92 490.75 903.36 483.916C913.92 478.364 919.68 471.957 920.64 464.269C921.6 457.863 920.16 452.737 917.28 452.737C914.4 452.737 913.44 455.727 915.36 459.144Z" fill="#FF0505"/>
<path id="Vector_14" d="M827.52 505.699C823.68 517.231 820.8 518.94 804.96 520.221C785.76 521.502 783.36 527.482 798.24 535.597C809.76 542.004 831.84 530.472 832.8 517.658C833.28 512.106 836.16 506.126 838.56 504.845C841.92 502.709 841.92 500.147 838.08 497.157C833.28 493.313 830.88 495.448 827.52 505.699Z" fill="#FF0505"/>
<path id="Vector_15" d="M588.48 532.607C584.64 553.963 585.12 591.548 589.44 612.904C591.84 624.009 593.28 610.768 593.28 573.183C593.76 542.431 593.28 516.804 592.8 516.804C592.32 516.804 590.4 524.065 588.48 532.607Z" fill="#FF0505"/>
<path id="Vector_16" d="M736.32 520.648C726.72 529.19 751.2 539.014 767.04 532.607C784.32 525.346 780 517.658 757.92 518.512C747.36 518.512 737.76 519.794 736.32 520.648Z" fill="#FF0505"/>
<path id="Vector_17" d="M842.4 521.075C832.8 534.743 866.4 543.712 880.32 531.326C890.4 522.356 885.6 515.523 873.12 521.075C866.88 524.065 861.12 524.065 854.88 521.075C848.16 518.085 844.32 518.085 842.4 521.075Z" fill="#FF0505"/>
<path id="Vector_18" d="M912.48 533.034C909.6 542.431 901.92 564.213 895.68 581.298C876 637.249 871.2 657.324 876.96 662.449C879.84 665.012 905.76 668.001 935.04 669.283C986.88 671.845 987.84 671.418 995.04 661.595C998.88 656.042 1008.96 625.29 1017.6 593.684C1026.24 562.078 1035.36 532.607 1037.28 528.763C1039.68 524.919 1039.68 520.648 1037.28 519.367C1035.36 518.085 1030.56 528.336 1027.2 542.431C1021.92 564.64 1019.52 568.057 1009.92 568.057C993.12 568.057 982.08 572.756 989.28 577.027C994.56 579.589 994.56 585.142 989.28 607.352C985.92 621.873 981.12 637.677 978.72 641.521C972.96 651.344 956.64 651.344 953.28 641.521C951.84 637.249 951.36 638.958 951.84 644.937C952.8 653.053 955.68 656.042 965.76 656.897C981.12 658.605 984.48 653.907 996 611.623C1001.76 590.694 1002.24 583.006 997.92 578.308C993.6 573.61 994.56 572.328 1005.12 572.328C1016.64 572.328 1017.6 573.61 1014.72 583.86C1005.6 620.592 996.48 648.354 990.24 657.324C983.04 667.147 982.08 667.574 934.08 664.585C907.68 662.876 883.68 659.886 881.76 658.178C879.84 656.469 884.16 635.968 891.84 612.477L905.76 570.62L931.2 565.495C955.2 560.796 966.72 553.108 961.92 545.848C958.08 540.722 933.6 542.004 927.36 547.556C917.76 556.098 920.64 559.942 935.04 557.38C945.6 555.671 946.56 555.671 938.4 559.088C929.28 562.932 907.2 565.495 907.2 562.505C907.2 561.651 910.56 551.827 914.88 540.722C919.2 529.617 921.6 519.367 920.16 518.085C918.72 516.804 914.88 523.638 912.48 533.034Z" fill="#FF0505"/>
<path id="Vector_19" d="M933.6 521.075C929.28 527.482 935.52 533.888 945.6 533.888C959.52 533.888 969.6 529.19 969.6 522.784C969.6 515.95 938.4 514.241 933.6 521.075Z" fill="#FF0505"/>
<path id="Vector_20" d="M1009.92 534.743C1006.56 548.837 1003.2 553.536 995.04 554.39C988.32 555.244 984 553.108 982.08 547.983C980.64 543.285 980.16 544.139 980.64 550.973C981.6 559.942 984 561.651 996 561.651C1008.48 561.651 1010.88 559.515 1016.16 542.431C1019.52 532.18 1020.48 521.929 1018.56 520.221C1016.16 518.085 1012.8 524.919 1009.92 534.743Z" fill="#FF0505"/>
<path id="Vector_21" d="M985.92 526.2C982.56 530.899 989.28 550.973 994.08 550.973C998.4 550.973 1008 533.034 1008 525.346C1008 521.075 988.8 521.502 985.92 526.2Z" fill="#FF0505"/>
<path id="Vector_22" d="M756.48 548.837C754.56 554.39 749.28 555.671 739.2 554.39C728.16 552.681 724.8 553.963 724.8 559.942C724.8 568.484 738.24 572.328 752.64 567.63C765.12 563.359 771.36 552.254 764.64 546.275C761.28 543.285 758.88 544.139 756.48 548.837Z" fill="#FF0505"/>
<path id="Vector_23" d="M782.4 548.837C774.24 557.38 778.56 569.766 790.08 571.474C803.52 573.183 823.2 558.661 819.36 549.692C816 541.149 805.92 539.868 807.84 547.556C808.32 550.973 803.04 553.536 794.4 554.39C780.48 555.244 780.48 555.244 789.12 548.837C794.4 545.42 796.32 542.431 793.44 542.431C790.56 542.431 785.76 545.42 782.4 548.837Z" fill="#FF0505"/>
<path id="Vector_24" d="M832.32 553.108C827.04 565.495 834.24 572.756 850.08 571.474C868.8 569.766 878.88 558.234 869.28 550.119C865.44 547.129 864 546.702 865.44 549.264C868.8 554.817 859.2 559.515 844.32 559.515C834.24 559.515 831.84 552.681 841.44 549.692C845.76 547.983 845.76 547.129 840.96 547.129C837.6 546.702 833.76 549.692 832.32 553.108Z" fill="#FF0505"/>
<path id="Vector_25" d="M916.8 578.735C909.6 586.423 914.4 593.684 926.4 593.684C941.76 593.684 950.4 588.986 950.4 580.444C950.4 570.193 925.92 568.912 916.8 578.735Z" fill="#FF0505"/>
<path id="Vector_26" d="M716.16 581.725C703.2 593.257 716.64 609.06 736.32 604.789C750.24 601.799 757.44 586.423 748.8 579.162C744 575.745 743.52 575.745 745.44 579.162C749.28 584.715 738.72 589.413 723.84 589.413C715.68 589.413 715.2 588.131 720 583.006C727.2 575.318 724.32 574.464 716.16 581.725Z" fill="#FF0505"/>
<path id="Vector_27" d="M896.16 639.385C894.24 640.666 892.8 644.937 892.8 647.927C892.8 657.323 928.32 653.479 930.24 643.656C931.68 638.103 928.32 636.395 915.36 636.395C906.72 636.395 897.6 637.676 896.16 639.385Z" fill="#FF0505"/>
<path id="Vector_28" d="M768.48 582.579C759.84 591.976 764.16 603.935 776.16 605.643C792.48 607.779 807.36 598.809 805.44 588.132C803.52 576.6 777.6 572.756 768.48 582.579ZM801.6 585.142C801.6 587.277 793.92 589.413 784.32 589.413C774.24 589.413 768.48 587.704 770.4 585.142C771.84 582.579 779.52 580.871 787.68 580.871C795.36 580.871 801.6 582.579 801.6 585.142Z" fill="#FF0505"/>
<path id="Vector_29" d="M973.92 580.016C973.44 581.725 973.44 584.715 974.4 587.277C974.88 589.413 972.48 599.664 969.12 609.914C964.8 623.155 961.92 626.999 959.04 622.728C955.68 618.884 955.2 619.311 957.12 624.863C958.56 629.134 960 635.541 960 639.385C960 661.595 987.36 615.04 988.32 591.121C988.8 582.579 975.36 572.328 973.92 580.016Z" fill="#FF0505"/>
<path id="Vector_30" d="M820.8 587.277C814.08 594.538 817.44 605.643 827.04 609.06C838.08 612.904 859.2 603.08 859.2 594.111C859.2 589.413 856.8 584.287 853.44 582.579C850.56 580.871 849.6 581.298 851.04 583.86C854.88 588.986 843.84 593.684 828.96 593.684C818.4 593.257 818.4 593.257 827.52 587.277C832.8 583.86 834.72 580.871 831.84 580.871C828.96 580.871 824.16 583.86 820.8 587.277Z" fill="#FF0505"/>
<path id="Vector_31" d="M921.6 606.497C899.52 609.487 898.56 621.019 920.64 622.728C931.2 623.582 936.96 621.873 938.88 617.602C943.68 606.924 939.36 604.362 921.6 606.497Z" fill="#FF0505"/>
<path id="Vector_32" d="M701.76 620.165C686.88 633.405 706.08 648.354 726.72 639.812C739.2 635.114 744.96 615.04 733.92 615.04C731.52 615.04 730.08 616.748 731.52 618.884C735.36 624.009 721.92 628.28 712.8 625.29C708.96 623.582 707.04 621.019 708.48 618.884C712.32 613.331 708.48 614.185 701.76 620.165Z" fill="#FF0505"/>
<path id="Vector_33" d="M753.12 624.009C744.96 637.676 758.4 647.927 776.16 642.375C791.04 638.103 796.32 625.29 786.72 617.602C782.4 614.185 781.92 614.185 784.32 618.029C786.24 621.446 782.88 624.436 775.2 626.144C760.8 629.134 753.12 624.863 763.2 619.311C768 616.748 768.48 615.039 764.64 615.039C761.28 615.039 756.48 619.311 753.12 624.009Z" fill="#FF0505"/>
<path id="Vector_34" d="M809.28 624.009C805.44 629.134 803.52 635.968 804.96 638.958C808.8 647.927 832.32 646.219 841.92 636.822C852.48 626.572 847.68 616.321 837.12 625.717C828.48 632.978 825.6 633.405 816 627.853C809.76 624.436 809.76 624.009 816 621.873C836.16 616.321 837.12 615.894 827.04 615.467C821.28 615.04 813.12 619.311 809.28 624.009Z" fill="#FF0505"/>
</g>
</g>
</g>
</svg>
