<svg xmlns="http://www.w3.org/2000/svg" version="1.1" xmlns:xlink="http://www.w3.org/1999/xlink" xmlns:svgjs="http://svgjs.com/svgjs" width="279" height="250"><svg xmlns="http://www.w3.org/2000/svg" version="1.1" viewBox="0.00 0.00 279.00 250.00">
<path fill="#ffa726" d="
  M 94.47 11.00
  C 118.01 15.98 139.74 26.78 160.41 41.08
  Q 163.91 43.50 165.97 45.77
  Q 168.07 48.09 171.82 54.80
  Q 172.13 55.36 171.92 55.97
  Q 171.38 57.53 169.95 58.67
  A 0.96 0.95 -44.5 0 1 168.74 58.66
  C 147.39 40.56 122.83 25.38 96.12 16.99
  C 83.51 13.03 70.14 12.09 57.70 13.80
  Q 51.94 14.59 45.48 17.85
  Q 40.03 20.60 35.23 25.48
  Q 23.81 37.08 23.56 55.75
  C 23.35 71.01 27.24 85.85 33.05 100.21
  C 35.46 106.14 35.26 112.22 34.84 118.54
  Q 34.61 121.99 33.18 118.84
  Q 26.39 103.89 22.57 89.99
  Q 18.57 75.46 19.26 58.79
  C 19.67 49.10 22.19 39.45 27.44 31.33
  C 42.19 8.51 69.31 5.69 94.47 11.00
  Z"></path>
<path fill="#ffa726" id="SvgjsPath1000" d="
  M 201.64 129.41
  Q 198.97 128.54 196.45 127.90
  C 189.89 126.23 189.08 138.01 183.36 134.70
  Q 179.24 132.32 176.25 129.57
  C 171.57 125.25 181.78 121.08 179.15 115.45
  C 175.77 108.20 171.72 108.85 165.01 110.77
  Q 162.38 111.53 161.13 109.13
  Q 159.35 105.72 158.27 100.07
  C 157.32 95.08 165.83 95.46 168.23 92.45
  C 169.65 90.66 169.32 86.65 169.06 84.46
  C 168.87 82.86 168.12 81.25 166.47 80.75
  Q 163.20 79.76 160.06 78.37
  Q 157.42 77.21 158.11 74.30
  C 158.87 71.05 160.80 62.25 165.37 63.78
  Q 168.25 64.76 171.07 65.62
  C 174.48 66.66 176.55 63.58 178.14 60.90
  C 180.39 57.11 178.71 53.85 176.35 50.90
  Q 173.37 47.17 176.78 44.50
  Q 179.97 42.01 183.74 39.64
  A 2.93 2.92 54.4 0 1 187.55 40.27
  Q 189.78 42.99 192.07 45.87
  Q 193.34 47.46 195.97 47.08
  C 199.45 46.58 204.57 44.12 204.55 39.80
  C 204.53 36.97 204.19 32.16 208.08 31.80
  Q 211.93 31.44 216.16 31.72
  Q 219.80 31.96 220.05 35.50
  C 220.19 37.46 220.44 39.40 220.54 41.32
  C 220.67 43.69 221.73 44.72 223.72 45.54
  C 226.98 46.90 231.20 48.21 233.59 44.96
  Q 235.58 42.27 237.59 40.04
  A 2.68 2.67 -53.5 0 1 240.96 39.53
  Q 245.49 42.24 249.30 45.77
  A 2.43 2.43 0.0 0 1 249.66 48.90
  C 247.87 51.57 245.37 54.84 245.80 58.16
  C 246.34 62.41 249.46 66.57 254.22 65.40
  Q 257.26 64.65 260.14 63.96
  Q 262.63 63.37 263.77 65.75
  Q 265.56 69.50 266.57 74.28
  Q 267.27 77.57 263.84 78.60
  C 258.11 80.31 253.66 83.90 255.77 90.55
  C 257.78 96.87 268.33 93.75 266.60 100.93
  Q 265.36 106.12 263.42 109.59
  C 262.65 110.97 260.65 111.04 259.32 110.67
  Q 256.40 109.87 253.21 109.12
  C 251.17 108.65 249.59 110.33 248.33 111.68
  C 246.24 113.95 243.98 117.40 246.10 120.25
  C 247.82 122.58 252.16 126.95 248.82 129.76
  Q 245.85 132.25 242.32 134.60
  C 235.47 139.14 235.63 126.11 228.51 127.78
  Q 225.23 128.55 222.47 129.88
  C 221.18 130.49 220.57 132.21 220.52 133.57
  Q 220.41 137.02 219.79 140.51
  Q 219.42 142.59 217.34 142.92
  C 214.65 143.33 211.95 143.31 209.16 143.31
  C 200.39 143.31 208.35 131.57 201.64 129.41
  Z
  M 242.40 87.38
  A 30.00 30.00 0.0 0 0 212.40 57.38
  A 30.00 30.00 0.0 0 0 182.40 87.38
  A 30.00 30.00 0.0 0 0 212.40 117.38
  A 30.00 30.00 0.0 0 0 242.40 87.38
  Z"></path>
<path fill="#ffffff" d="
  M 54.14 171.04
  C 55.11 173.81 58.07 175.53 60.86 175.53
  Q 125.54 175.53 190.22 175.65
  Q 197.55 175.66 204.03 175.62
  Q 208.05 175.59 209.68 174.17
  Q 212.68 171.55 212.71 167.53
  Q 212.77 159.75 212.79 150.67
  Q 212.79 149.90 213.56 149.79
  L 221.01 148.80
  A 0.81 0.80 -4.6 0 1 221.92 149.57
  C 222.14 157.35 222.62 164.94 221.64 171.95
  C 220.82 177.76 217.13 182.03 211.47 183.93
  Q 210.15 184.37 207.17 184.81
  Q 204.95 185.13 202.77 185.13
  Q 140.59 185.13 71.04 185.04
  C 66.74 185.03 61.97 185.48 57.89 184.70
  C 48.95 182.98 43.90 176.28 43.90 167.39
  C 43.88 141.70 43.99 114.60 43.88 85.00
  C 43.88 83.37 43.86 81.84 44.33 80.24
  Q 46.76 72.00 54.72 68.72
  Q 58.05 67.34 66.60 67.39
  Q 107.29 67.63 152.93 67.59
  A 0.22 0.22 0.0 0 1 153.15 67.86
  L 151.10 76.72
  Q 151.04 76.97 150.79 76.97
  Q 106.88 77.01 63.25 76.99
  C 57.04 76.99 53.44 79.25 53.45 85.91
  Q 53.48 125.97 53.42 166.52
  Q 53.42 168.99 54.14 171.04
  Z"></path>
<path fill="#ffa726" d="
  M 150.45 232.24
  Q 137.44 226.20 124.12 218.64
  Q 122.73 217.84 124.33 217.70
  C 131.04 217.12 138.06 216.85 144.26 220.29
  C 161.29 229.74 178.67 236.19 197.72 238.11
  C 219.34 240.28 239.69 231.53 246.69 209.98
  Q 248.78 203.55 248.85 194.44
  Q 248.99 174.29 240.22 153.29
  Q 238.23 148.52 236.43 143.83
  Q 235.80 142.16 237.53 142.56
  L 243.09 143.82
  Q 244.91 144.23 245.60 145.96
  Q 251.81 161.55 253.90 178.91
  C 255.44 191.67 254.50 205.33 248.92 216.46
  C 230.21 253.76 181.15 246.51 150.45 232.24
  Z"></path>
<path fill="#ffffff" d="
  M 116.98 201.30
  C 112.51 201.48 110.21 204.22 109.48 208.33
  Q 109.37 208.96 108.74 208.96
  Q 68.14 209.15 49.76 208.92
  C 45.75 208.86 40.30 207.03 37.81 203.37
  Q 35.88 200.51 35.52 197.36
  Q 35.42 196.50 36.29 196.50
  Q 127.66 196.78 227.75 196.66
  Q 228.51 196.66 229.24 196.86
  A 1.23 1.23 0.0 0 1 230.11 198.30
  Q 227.90 208.64 216.91 208.79
  Q 185.84 209.21 157.59 208.91
  A 1.28 1.27 -7.2 0 1 156.37 207.97
  C 155.41 204.49 153.94 201.65 149.77 201.46
  Q 132.14 200.68 116.98 201.30
  Z"></path>
</svg><style>@media (prefers-color-scheme: light) { :root { filter: none; } }
</style></svg>